<svg xmlns="http://www.w3.org/2000/svg" version="1.1" xmlns:xlink="http://www.w3.org/1999/xlink" xmlns:svgjs="http://svgjs.com/svgjs" width="1440" height="560" preserveAspectRatio="none" viewBox="0 0 1440 560"><g mask="url(&quot;#SvgjsMask1000&quot;)" fill="none"><rect width="1440" height="560" x="0" y="0" fill="#0e2a47"></rect><path d="M1324.31 405.18a5.6 5.6 0 1 0-9.45 6.01 5.6 5.6 0 1 0 9.45-6.01zM1310.81 413.77a5.6 5.6 0 1 0-9.45 6.02 5.6 5.6 0 1 0 9.45-6.02zM1297.31 422.36a5.6 5.6 0 1 0-9.45 6.02 5.6 5.6 0 1 0 9.45-6.02zM1283.81 430.96a5.6 5.6 0 1 0-9.44 6.01 5.6 5.6 0 1 0 9.44-6.01zM1342.71 374.5a5.6 5.6 0 1 0-9.45 6.01 5.6 5.6 0 1 0 9.45-6.01zM1329.21 383.09a5.6 5.6 0 1 0-9.45 6.01 5.6 5.6 0 1 0 9.45-6.01zM1315.71 391.68a5.6 5.6 0 1 0-9.44 6.02 5.6 5.6 0 1 0 9.44-6.02zM1302.22 400.27a5.6 5.6 0 1 0-9.45 6.02 5.6 5.6 0 1 0 9.45-6.02z" stroke="#037b0b" stroke-width="1.08" stroke-dasharray="3, 3"></path><rect width="139.60000000000002" height="139.60000000000002" clip-path="url(&quot;#SvgjsClipPath1001&quot;)" x="861.7" y="126.91" fill="url(#SvgjsPattern1002)" transform="rotate(227.51, 931.5, 196.71)"></rect><path d="M1366.32 565.67L1375.89 557.16 1386.29 564.63 1395.87 556.13 1406.27 563.6 1415.84 555.09 1426.24 562.57" stroke="#d3b714" stroke-width="1" stroke-dasharray="4, 4"></path><rect width="336" height="336" clip-path="url(&quot;#SvgjsClipPath1003&quot;)" x="1202.76" y="9.47" fill="url(#SvgjsPattern1004)" transform="rotate(130.88, 1370.76, 177.47)"></rect><rect width="60" height="60" clip-path="url(&quot;#SvgjsClipPath1005&quot;)" x="562.82" y="414.11" fill="url(#SvgjsPattern1006)" transform="rotate(336.64, 592.82, 444.11)"></rect><path d="M466.16 517.3L465.83 530.11 453.27 532.6 452.94 545.4 440.38 547.89 440.05 560.69 427.49 563.18M460.04 512.15L459.71 524.95 447.15 527.44 446.82 540.24 434.26 542.74 433.94 555.54 421.38 558.03M453.92 506.99L453.59 519.79 441.03 522.29 440.71 535.09 428.15 537.58 427.82 550.38 415.26 552.87" stroke="#d3b714" stroke-width="1" stroke-dasharray="2, 2"></path><rect width="228" height="228" clip-path="url(&quot;#SvgjsClipPath1007&quot;)" x="1143.81" y="-2.45" fill="url(#SvgjsPattern1008)" transform="rotate(319.11, 1257.81, 111.55)"></rect><path d="M533.79 449.38L537.29 461.69 526.05 467.82 529.55 480.14 518.31 486.26 521.81 498.58 510.57 504.7" stroke="#037b0b" stroke-width="2.64" stroke-dasharray="4, 4"></path><path d="M939.1700000000001 661.01 L883.61 686.4L874.6833142842099 636.9983142842098z" stroke="#d3b714" stroke-width="1.64" stroke-dasharray="4, 4"></path><circle r="59.6892741626737" cx="562.67" cy="50.13" stroke="#037b0b" stroke-width="2.49" stroke-dasharray="2, 2"></circle><path d="M420.26 80.01L407.64 82.16 402.77 70.32 390.14 72.48 385.27 60.63 372.65 62.79 367.77 50.95M424.14 73.01L411.52 75.17 406.64 63.32 394.02 65.48 389.14 53.64 376.52 55.79 371.65 43.95" stroke="#d3b714" stroke-width="1.61" stroke-dasharray="2, 2"></path><circle r="53.52585624296721" cx="486.21" cy="421.05" fill="#e73635"></circle></g><defs><mask id="SvgjsMask1000"><rect width="1440" height="560" fill="#ffffff"></rect></mask><pattern x="0" y="0" width="13.96" height="13.96" patternUnits="userSpaceOnUse" id="SvgjsPattern1002"><path d="M0 13.96L6.98 0L13.96 13.96" stroke="#d3b714" fill="none"></path></pattern><clipPath id="SvgjsClipPath1001"><circle r="34.900000000000006" cx="931.5" cy="196.71"></circle></clipPath><pattern x="0" y="0" width="6" height="6" patternUnits="userSpaceOnUse" id="SvgjsPattern1004"><path d="M0 6L3 0L6 6" stroke="#d3b714" fill="none"></path></pattern><clipPath id="SvgjsClipPath1003"><circle r="84" cx="1370.76" cy="177.47"></circle></clipPath><pattern x="0" y="0" width="60" height="6" patternUnits="userSpaceOnUse" id="SvgjsPattern1006"><rect width="60" height="3" x="0" y="0" fill="#037b0b"></rect><rect width="60" height="3" x="0" y="3" fill="rgba(0, 0, 0, 0)"></rect></pattern><clipPath id="SvgjsClipPath1005"><circle r="15" cx="592.82" cy="444.11"></circle></clipPath><pattern x="0" y="0" width="228" height="7.6" patternUnits="userSpaceOnUse" id="SvgjsPattern1008"><rect width="228" height="3.8" x="0" y="0" fill="#037b0b"></rect><rect width="228" height="3.8" x="0" y="3.8" fill="rgba(0, 0, 0, 0)"></rect></pattern><clipPath id="SvgjsClipPath1007"><circle r="57" cx="1257.81" cy="111.55"></circle></clipPath></defs></svg>