<svg xmlns="http://www.w3.org/2000/svg" viewBox="0 0 500 500"><g id="freepik--background-complete--inject-31"><rect y="382.4" width="500" height="0.25" style="fill:#ebebeb"></rect><rect x="429.83" y="398.49" width="20.07" height="0.25" style="fill:#ebebeb"></rect><rect x="357.48" y="394.99" width="32.02" height="0.25" style="fill:#ebebeb"></rect><rect x="274.19" y="389.21" width="36.98" height="0.25" style="fill:#ebebeb"></rect><rect x="75.46" y="396.57" width="43.19" height="0.25" style="fill:#ebebeb"></rect><rect x="60.22" y="396.57" width="6.33" height="0.25" style="fill:#ebebeb"></rect><rect x="131.75" y="389.08" width="37.48" height="0.25" style="fill:#ebebeb"></rect><path d="M237,337.8H43.91a5.71,5.71,0,0,1-5.7-5.71V60.66A5.71,5.71,0,0,1,43.91,55H237a5.71,5.71,0,0,1,5.71,5.71V332.09A5.71,5.71,0,0,1,237,337.8ZM43.91,55.2a5.46,5.46,0,0,0-5.45,5.46V332.09a5.46,5.46,0,0,0,5.45,5.46H237a5.47,5.47,0,0,0,5.46-5.46V60.66A5.47,5.47,0,0,0,237,55.2Z" style="fill:#ebebeb"></path><path d="M453.31,337.8H260.21a5.72,5.72,0,0,1-5.71-5.71V60.66A5.72,5.72,0,0,1,260.21,55h193.1A5.71,5.71,0,0,1,459,60.66V332.09A5.71,5.71,0,0,1,453.31,337.8ZM260.21,55.2a5.47,5.47,0,0,0-5.46,5.46V332.09a5.47,5.47,0,0,0,5.46,5.46h193.1a5.47,5.47,0,0,0,5.46-5.46V60.66a5.47,5.47,0,0,0-5.46-5.46Z" style="fill:#ebebeb"></path><path d="M128,287.06c-9.81-31.68-33-121.34-9.62-199.26a.93.93,0,0,0-1.74-.67A83.31,83.31,0,0,0,112.49,98a.93.93,0,0,1-1.81-.17,196.36,196.36,0,0,1-1-27.22.94.94,0,0,0-1.85-.25,96.45,96.45,0,0,0-2.76,24.77.93.93,0,0,1-1.85.19c-.64-3.47-1.22-7.19-1.71-11.13a.94.94,0,0,0-1.86,0,99,99,0,0,0,6.67,44.61s0,.09,0,.14A232.61,232.61,0,0,1,91.65,85.45a.93.93,0,0,0-1.84.19,116.21,116.21,0,0,0,1.57,22.22.93.93,0,0,1-1.81.42c-.43-1.38-.85-2.77-1.25-4.2a.94.94,0,0,0-1.84.26A127.06,127.06,0,0,0,89.81,133a.93.93,0,0,1-1.77.56C84.48,124.59,80.9,114.6,77.78,104a.94.94,0,0,0-1.84.27C76.5,141,96.67,176,103.75,187.11v0a416.34,416.34,0,0,1-35.31-65.58.94.94,0,0,0-1.79.48A146.24,146.24,0,0,0,76,157.28a.93.93,0,0,1-1.68.79c-2.4-4.44-4.75-9-7-13.77a.94.94,0,0,0-1.77.54c2.63,17.26,9.4,34.88,16.8,50.09a.94.94,0,0,1-1.65.88,217.12,217.12,0,0,1-10.23-19.7.93.93,0,0,0-1.78.47,96,96,0,0,0,9.82,34,.93.93,0,0,1-1.61.93c-3.24-4.83-6.44-9.93-9.51-15.26a.94.94,0,0,0-1.73.64c2.71,14.92,9.41,28.62,17.11,40.24a.93.93,0,0,1-1.48,1.12,246.35,246.35,0,0,1-15.91-20.45.93.93,0,0,0-1.67.77c10.26,39.23,53.36,70.63,54.18,71.23l0,0,3.43,2.22A4.41,4.41,0,0,0,128,287.06Z" style="fill:#f5f5f5"></path><path d="M143.35,268.32c-1.81-27.15-3.29-103.11,30.16-160.87a.76.76,0,0,0-1.26-.86,67.21,67.21,0,0,0-5.34,7.87.77.77,0,0,1-1.42-.48,162,162,0,0,1,4.36-21.92.77.77,0,0,0-1.42-.55,79.08,79.08,0,0,0-6.91,19.24.76.76,0,0,1-1.51-.19c.15-2.89.39-6,.75-9.21a.77.77,0,0,0-1.5-.33,81.25,81.25,0,0,0-3.14,36.88.42.42,0,0,0,0,.1,190.35,190.35,0,0,1-3.43-37.49.77.77,0,0,0-1.51-.2,96.08,96.08,0,0,0-3,18,.77.77,0,0,1-1.53,0c-.08-1.18-.15-2.38-.2-3.59a.77.77,0,0,0-1.51-.14,103.78,103.78,0,0,0-2.78,23.49.77.77,0,0,1-1.53.1c-1.14-7.81-2.09-16.47-2.57-25.54a.77.77,0,0,0-1.51-.14C130,142,139.47,173.7,143,184v0a341.52,341.52,0,0,1-15.73-59,.77.77,0,0,0-1.52,0,120,120,0,0,0,.76,29.9.76.76,0,0,1-1.49.31c-1.07-4-2.07-8.12-3-12.32a.77.77,0,0,0-1.52.1c-1.18,14.27.88,29.62,3.89,43.16a.77.77,0,0,1-1.48.39,180,180,0,0,1-4.42-17.66.77.77,0,0,0-1.51,0,78.52,78.52,0,0,0,1.38,29,.77.77,0,0,1-1.47.44c-1.66-4.47-3.25-9.15-4.69-14a.77.77,0,0,0-1.5.18c-.67,12.43,2.07,24.63,6,35.37a.77.77,0,0,1-1.4.62,200.51,200.51,0,0,1-8.81-19.35.77.77,0,0,0-1.48.3c.73,33.26,29.17,66.51,29.71,67.14l0,0,2.32,2.42A3.62,3.62,0,0,0,143.35,268.32Z" style="fill:#e6e6e6"></path><path d="M106.61,295.76c1.86-23,4-87.5-23.7-136.93a.65.65,0,0,1,1.08-.72,57.24,57.24,0,0,1,4.44,6.75.65.65,0,0,0,1.21-.39,136.65,136.65,0,0,0-3.45-18.66.65.65,0,0,1,1.22-.45,67.35,67.35,0,0,1,5.64,16.42.65.65,0,0,0,1.29-.15c-.1-2.45-.27-5.08-.53-7.83a.65.65,0,0,1,1.27-.26,69.13,69.13,0,0,1,2.24,31.34l0,.09a162.38,162.38,0,0,0,3.35-31.78A.65.65,0,0,1,102,153a80.68,80.68,0,0,1,2.3,15.35.65.65,0,0,0,1.3,0c.09-1,.16-2,.21-3a.65.65,0,0,1,1.29-.11,88.6,88.6,0,0,1,2.09,20,.65.65,0,0,0,1.29.11c1.06-6.62,2-14,2.48-21.66a.65.65,0,0,1,1.29-.1c5.21,25.1-3.2,51.91-6.33,60.57v0a289.91,289.91,0,0,0,14-49.95.65.65,0,0,1,1.29.06,101.81,101.81,0,0,1-1,25.37.65.65,0,0,0,1.26.28c1-3.38,1.86-6.86,2.66-10.42a.65.65,0,0,1,1.29.1c.83,12.13-1.1,25.14-3.82,36.6a.65.65,0,0,0,1.26.35,153.78,153.78,0,0,0,4-14.94.65.65,0,0,1,1.28,0,66.67,66.67,0,0,1-1.51,24.62.65.65,0,0,0,1.24.39c1.46-3.77,2.87-7.73,4.15-11.82a.65.65,0,0,1,1.27.18c.42,10.55-2,20.88-5.53,29.95a.65.65,0,0,0,1.18.54,169.93,169.93,0,0,0,7.71-16.32.65.65,0,0,1,1.25.27c-1,28.23-25.55,56.12-26,56.65l0,0-2,2A3.08,3.08,0,0,1,106.61,295.76Z" style="fill:#e0e0e0"></path><path d="M75.88,249.48a11.07,11.07,0,0,0-11.07,11.57c1.47,32.34,8.79,121.35,44.84,121.35s43.37-89,44.84-121.35a11.08,11.08,0,0,0-11.07-11.57Z" style="fill:#ebebeb"></path><rect x="194.27" y="272.18" width="190.17" height="5.59" style="fill:#f5f5f5"></rect><rect x="384.44" y="272.18" width="39.83" height="5.59" transform="translate(808.71 549.96) rotate(180)" style="fill:#e0e0e0"></rect><polygon points="404.35 277.77 402.69 277.77 383.42 382.4 385.09 382.4 404.35 277.77" style="fill:#e0e0e0"></polygon><polygon points="404.35 277.77 406.02 277.77 425.29 382.4 423.62 382.4 404.35 277.77" style="fill:#e0e0e0"></polygon><polygon points="214.19 277.77 212.52 277.77 193.25 382.4 194.92 382.4 214.19 277.77" style="fill:#e0e0e0"></polygon><polygon points="214.19 277.77 215.85 277.77 235.12 382.4 233.46 382.4 214.19 277.77" style="fill:#e0e0e0"></polygon><rect x="271.9" y="344.29" width="19.66" height="38.11" style="fill:#e6e6e6"></rect><rect x="231.14" y="344.29" width="40.76" height="38.11" transform="translate(503.04 726.69) rotate(180)" style="fill:#f5f5f5"></rect><rect x="231.14" y="360.44" width="11.8" height="7.79" style="fill:#f0f0f0"></rect><rect x="231.14" y="370.38" width="11.8" height="7.79" style="fill:#f0f0f0"></rect><rect x="272.2" y="341.38" width="20.22" height="2.91" style="fill:#e0e0e0"></rect><rect x="230.27" y="341.38" width="41.93" height="2.91" transform="translate(502.47 685.67) rotate(180)" style="fill:#f0f0f0"></rect><rect x="345.68" y="325.91" width="29.14" height="56.49" style="fill:#e6e6e6"></rect><rect x="285.26" y="325.91" width="60.42" height="56.49" transform="translate(630.94 708.3) rotate(180)" style="fill:#f5f5f5"></rect><rect x="319.89" y="332.37" width="20.88" height="18.4" style="fill:#f0f0f0"></rect><rect x="319.89" y="355.87" width="20.88" height="18.4" style="fill:#f0f0f0"></rect><rect x="346.13" y="321.6" width="29.98" height="4.31" style="fill:#e0e0e0"></rect><rect x="283.98" y="321.6" width="62.15" height="4.31" transform="translate(630.1 647.5) rotate(180)" style="fill:#f0f0f0"></rect></g><g id="freepik--Shadow--inject-31"><ellipse id="freepik--path--inject-31" cx="250" cy="416.24" rx="193.89" ry="11.32" style="fill:#f5f5f5"></ellipse></g><g id="freepik--Notes--inject-31"><rect x="427.8" y="169.42" width="7.23" height="1.04" transform="translate(242.52 593.4) rotate(-87.46)" style="fill:#36122C"></rect><rect x="422.62" y="150.47" width="19.29" height="1.04" transform="translate(262.26 576.14) rotate(-87.46)" style="fill:#36122C"></rect><path d="M415.75,257.44H215.94a8.2,8.2,0,0,1-8.24-8.63L214.44,98.3a9.14,9.14,0,0,1,9-8.63H423.27a8.19,8.19,0,0,1,8.24,8.63l-6.74,150.51A9.15,9.15,0,0,1,415.75,257.44Z" style="fill:#36122C"></path><path d="M414.28,257.44H215.94a8.2,8.2,0,0,1-8.24-8.63L214.44,98.3a9.14,9.14,0,0,1,9-8.63H421.8a8.21,8.21,0,0,1,8.25,8.63L423.3,248.81A9.15,9.15,0,0,1,414.28,257.44Z" style="fill:#fff;opacity:0.5"></path><polygon points="356.04 217.32 320.28 217 324.75 166.83 359.06 166.83 356.04 217.32" style="fill:#36122C;opacity:0.4"></polygon><polygon points="269.65 160.79 233.88 160.63 238.12 110.46 273.89 110.62 269.65 160.79" style="fill:#36122C;opacity:0.4"></polygon><polygon points="362.19 158.17 326.21 159.69 328.42 109.7 362.96 108.24 362.19 158.17" style="fill:#36122C;opacity:0.4"></polygon><polygon points="401.88 199.54 366.73 196.78 371.61 146.66 406.04 150.26 401.88 199.54" style="fill:#36122C;opacity:0.4"></polygon><polygon points="313.6 146.98 286.08 146.24 288.85 107.67 316.05 108.08 313.6 146.98" style="fill:#36122C;opacity:0.4"></polygon><polygon points="265.61 250 238.58 249.43 241.34 210.85 267.3 210.36 265.61 250" style="fill:#36122C;opacity:0.4"></polygon><polygon points="412.22 140.69 384.67 140.76 387.8 102.15 414.82 102.08 412.22 140.69" style="fill:#36122C;opacity:0.4"></polygon><polygon points="277.15 201.52 304.4 204.66 309.27 165.36 283.27 163.18 277.15 201.52" style="fill:#36122C;opacity:0.4"></polygon><polygon points="354.64 215.85 318.88 215.53 323.35 165.36 359.11 165.69 354.64 215.85" style="fill:#fff"></polygon><polygon points="269.37 159.66 233.61 159.34 238.08 109.17 273.84 109.5 269.37 159.66" style="fill:#fff"></polygon><polygon points="360.79 156.7 324.81 158.22 327.01 108.24 363 106.72 360.79 156.7" style="fill:#fff"></polygon><polygon points="400.78 199.03 365.33 195.32 370.21 145.19 405.66 148.9 400.78 199.03" style="fill:#fff"></polygon><polygon points="313.07 145.52 285.55 144.78 288.31 106.2 315.83 106.94 313.07 145.52" style="fill:#fff"></polygon><polygon points="264.7 248.7 237.18 247.96 239.94 209.39 267.46 210.13 264.7 248.7" style="fill:#fff"></polygon><polygon points="411.29 140.15 383.74 140.22 386.87 101.6 414.42 101.53 411.29 140.15" style="fill:#fff"></polygon><polygon points="275.75 200.05 303 203.19 309.11 164.85 281.87 161.71 275.75 200.05" style="fill:#fff"></polygon><path d="M290.16,218.42S290,228.89,288.5,232c4.89,1.4,14.32,1.38,14.32,1.38s2.06-10.07,1.72-14C301.73,218.71,290.16,218.42,290.16,218.42Z" style="fill:#36122C;opacity:0.4"></path><path d="M290.16,218.42S289,228.87,287.51,232a96.68,96.68,0,0,0,13.35,2.21s4.16-10.87,3.68-14.86C301.73,218.71,290.16,218.42,290.16,218.42Z" style="fill:#fff"></path><path d="M363.79,220.13s5.67,14.34,5.35,19.4c7.68-.86,21.05-5.27,21.05-5.27s-2.86-15.79-5.61-21C380.28,214,363.79,220.13,363.79,220.13Z" style="fill:#36122C;opacity:0.4"></path><path d="M361.94,219.05s4.76,18.42,4.44,23.48c7.68-.87,22.5-6.81,22.5-6.81s-2-18.82-5-24C379.62,212.49,361.94,219.05,361.94,219.05Z" style="fill:#fff"></path><path d="M380.67,216.12a1.73,1.73,0,0,1-1.72,1.64,1.55,1.55,0,0,1-1.57-1.64,1.74,1.74,0,0,1,1.72-1.65A1.56,1.56,0,0,1,380.67,216.12Z" style="fill:#36122C;opacity:0.4"></path><path d="M270.74,109.52a3,3,0,0,1-2.93,2.8,2.65,2.65,0,0,1-2.68-2.8,3,3,0,0,1,2.93-2.8A2.66,2.66,0,0,1,270.74,109.52Z" style="fill:#36122C"></path><path d="M289.33,162.61a2.1,2.1,0,0,1-2.08,2,1.88,1.88,0,0,1-1.9-2,2.1,2.1,0,0,1,2.08-2A1.88,1.88,0,0,1,289.33,162.61Z" style="fill:#36122C"></path><path d="M374,122.86a2.12,2.12,0,0,1-2.08,2,1.9,1.9,0,0,1-1.91-2,2.11,2.11,0,0,1,2.08-2A1.9,1.9,0,0,1,374,122.86Z" style="fill:#36122C"></path></g><g id="freepik--Character--inject-31"><path d="M154.65,132.74c1.08,5.51,2.15,15.6-1.7,19.28a28,28,0,0,0,13.28,11.21c7.37-4.61,3.84-11.21,3.84-11.21-6.14-1.47-6-6-4.91-10.31Z" style="fill:#b55b52"></path><path d="M147.34,134.62c-4.53-.46-18,18.57,8.08,27.06-4.24-3.93-6.35-7.74-5.24-12.24a38.77,38.77,0,0,0,.54-10.58S152.27,135.12,147.34,134.62Z" style="fill:#263238"></path><path d="M150.1,157.77a11.79,11.79,0,0,1-2.16-3.6A5.42,5.42,0,0,1,153.8,147a32.82,32.82,0,0,0,8.47.06c6.38-.79,9.72,2.42,13.17,9.3h0s-1.61,3-6.44,4.17S150.1,157.77,150.1,157.77Z" style="fill:#36122C"></path><path d="M178.22,127.88c-.17.73.07,1.41.55,1.52s1-.38,1.18-1.11-.07-1.41-.55-1.52S178.4,127.15,178.22,127.88Z" style="fill:#263238"></path><path d="M179.18,126.76l1.87-.09S179.83,127.82,179.18,126.76Z" style="fill:#263238"></path><path d="M180.36,123.78a.44.44,0,0,0,.36-.72,4.36,4.36,0,0,0-3.67-1.62.44.44,0,0,0-.39.49.45.45,0,0,0,.49.39,3.47,3.47,0,0,1,2.9,1.31A.46.46,0,0,0,180.36,123.78Z" style="fill:#263238"></path><path d="M177.31,130.11a19.92,19.92,0,0,0,1.48,5.28,3.23,3.23,0,0,1-2.71-.14Z" style="fill:#a02724"></path><path d="M154.37,119c-1.6,9.08-2.47,12.88.94,18.56,5.13,8.54,16.62,8.52,20.91.11,3.85-7.57,5.83-21.14-2.07-26.8A12.57,12.57,0,0,0,154.37,119Z" style="fill:#b55b52"></path><path d="M170.5,126.2c2.75-1.12,9.29-3.6,10.89-7.51s-5-14.35-10.64-12.29c-14.69-3.13-24.93,3.9-24.87,15,.06,11.6,4.67,18.2,12.23,19.92S172.24,135.12,170.5,126.2Z" style="fill:#263238"></path><path d="M149.39,129.39c-3-.41-4.6,2.63-3.51,5.15s4.73,6.51,6.13,6.51,4.17-1,4.87-2.57S151.41,129.68,149.39,129.39Z" style="fill:#36122C"></path><path d="M168,125.36a6.68,6.68,0,0,0,.82,5.07c1.25,2,3.46,1.27,4.44-.75.88-1.81,1.28-5-.61-6.34A3,3,0,0,0,168,125.36Z" style="fill:#b55b52"></path><path d="M146.93,161.28c0,.37,0,1,0,1.49v1.62q0,1.63.15,3.27a54.6,54.6,0,0,0,.84,6.43,31.55,31.55,0,0,0,4.5,11.42c.82,1.06.5.89,1.2,1.37A11.15,11.15,0,0,0,156,188a44.18,44.18,0,0,0,6.3,1.63c4.45.84,9.16,1.42,13.78,1.89l.13,4.71a80.91,80.91,0,0,1-14.78.57,42,42,0,0,1-7.72-1.08,19.89,19.89,0,0,1-4.23-1.54,11.34,11.34,0,0,1-2.33-1.62c-.2-.18-.4-.39-.6-.6l-.37-.43-.68-.81a31.83,31.83,0,0,1-4.26-7.06,40.68,40.68,0,0,1-2.5-7.57,52.35,52.35,0,0,1-1.21-7.71c-.09-1.29-.15-2.58-.17-3.88,0-.65,0-1.3,0-1.95s.05-1.26.12-2.09Z" style="fill:#b55b52"></path><path d="M175.79,191.17l9.91-1.56-4.88,8.08s-6-.25-7.64-3.72Z" style="fill:#b55b52"></path><polygon points="190.6 192.33 190.63 198.34 180.82 197.69 185.7 189.61 190.6 192.33" style="fill:#b55b52"></polygon><path d="M211.49,217.92h-31a1.18,1.18,0,0,1-1.23-1.63l14.31-41.69a2.6,2.6,0,0,1,2.34-1.62h31a1.17,1.17,0,0,1,1.23,1.62l-14.31,41.69A2.63,2.63,0,0,1,211.49,217.92Z" style="fill:#36122C"></path><path d="M210.94,216.6H181a.65.65,0,0,1-.68-.91l14.14-41.23a1.48,1.48,0,0,1,1.31-.91h30a.66.66,0,0,1,.69.91l-14.15,41.23A1.48,1.48,0,0,1,210.94,216.6Z" style="fill:#fff"></path><path d="M137.67,154l10,4.05,5.33,5.91.69,8.15s-11.65,8.84-17.84,8C133.71,165.13,135.05,156.89,137.67,154Z" style="fill:#263238"></path><path d="M186.86,160.61c.15,6.73-.8,20.74-5.53,49.83H143.62c.63-15.35,1.38-25-6-56.46A103.77,103.77,0,0,1,153,152a119.16,119.16,0,0,1,17.12,0c3.69.34,7.63.93,10.63,1.45A7.39,7.39,0,0,1,186.86,160.61Z" style="fill:#263238"></path><path d="M179.49,163.23l6.71,10.93c-.35,3.89-.86,8.55-1.59,14.12l-5.5-3.25C176.86,168.49,179.49,163.23,179.49,163.23Z" style="opacity:0.2"></path><path d="M187.48,163.41q2.09,6.57,4,13.2l1.92,6.63,1.85,6.65.91,3.33.45,1.67a12,12,0,0,0,.38,1.26,7.53,7.53,0,0,0,.75,1.56c.07.1.06.12,0,.15s-.07.09.05.11a3.13,3.13,0,0,0,1.67-.47,15.33,15.33,0,0,0,2.34-1.56c.8-.64,1.59-1.34,2.37-2.08s1.55-1.57,2.25-2.31l4,2.52a31.45,31.45,0,0,1-1.84,3.29,26,26,0,0,1-2.23,3.1,19.21,19.21,0,0,1-2.94,2.89,10.51,10.51,0,0,1-4.68,2.16,7.64,7.64,0,0,1-3.37-.19,8.26,8.26,0,0,1-2.95-1.58,12.51,12.51,0,0,1-3.13-4.12,15.12,15.12,0,0,1-.82-2l-.56-1.65-1.12-3.29-2.19-6.6-2.11-6.63c-1.43-4.42-2.78-8.86-4.08-13.31Z" style="fill:#b55b52"></path><path d="M177.24,161c1.59-3.8,6.57-6.25,6.57-6.25,5.36,3.49,7.17,5.14,10.73,22.89-5.19,4.54-13.79,4.54-13.79,4.54l-4.64-12S175.65,164.83,177.24,161Z" style="fill:#263238"></path><path d="M205.19,193.31l3.56-8.68,4.36,8.37s-3.3,5-7.14,4.6Z" style="fill:#b55b52"></path><path d="M215.32,186.38a.53.53,0,0,1-.45-.23l-10.39-14.22a.57.57,0,0,1,.13-.79.56.56,0,0,1,.78.13l10.38,14.22a.55.55,0,0,1-.45.89Z" style="fill:#263238"></path><polygon points="216.52 182.94 218.81 187.98 213.11 193 208.75 184.63 216.52 182.94" style="fill:#b55b52"></polygon><path d="M181.33,210.44s9.42,71.29,12.64,99.43c4.75,41.56,15.36,97,15.36,97L203,408s-22.12-54.25-25.46-95.33C167.05,282.41,152,210.44,152,210.44Z" style="fill:#b55b52"></path><path d="M208.82,400.06l-8.19,4a.74.74,0,0,0-.4.9l2.64,7.82a1.53,1.53,0,0,0,2.13.77c3.36-1.71,3.37-1.94,7.64-4,2.63-1.29,6.9-3.24,10.53-5s2.07-5.27.4-4.84c-7.48,1.94-9.83.89-13,.19A2.62,2.62,0,0,0,208.82,400.06Z" style="fill:#263238"></path><path d="M171.48,210.44s-6.12,67.52-11.27,95.37c-5.41,29.25-9.45,98.95-9.51,101.08h-6.43s-8.8-78.35-.59-104.57c1.36-32-.06-91.88-.06-91.88Z" style="fill:#b55b52"></path><path d="M151.46,405.58h-7.32a.74.74,0,0,0-.75.64l-1.08,8.37a1.53,1.53,0,0,0,1.53,1.67c3.68-.06,2.21-.28,6.86-.28,2.86,0,7,.3,11,.3s4.11-3.91,2.46-4.26c-7.4-1.59-8.59-3.78-11.11-5.86A2.47,2.47,0,0,0,151.46,405.58Z" style="fill:#263238"></path><path d="M143.76,300.38l17.07,1.88c.69-4.08,1.4-8.79,2.09-13.87l-18.81-1.93C144,291.41,143.92,296.12,143.76,300.38Z" style="opacity:0.2"></path><path d="M191.74,291.35l-21.24-2.18c1.4,5.21,2.8,10.14,4.15,14.6l18.84,2.06C193,301.6,192.4,296.68,191.74,291.35Z" style="opacity:0.2"></path><path d="M181.33,210.44l13.6,93.14-52.88-6.7c5.16-39.87-10.51-71.84,1.57-86.44Z" style="fill:#36122C"></path><path d="M148.58,229.55a58.91,58.91,0,0,0,19.74,11.33C156.44,240.75,150.93,236.53,148.58,229.55Z" style="opacity:0.2"></path></g></svg>